# xmcd CD database file
#
# Track frame offsets:
#	150
#	16162
#	32267
#	54360
#	66872
#	88702
#	105547
#	123387
#	141730
#	157945
#	176670
#	194232
#	211980
#
# Disc length: 3106 seconds
#
# Revision: 0
# Processed by: cddbd v1.5PL3 Copyright (c) Steve Scherf et al.
# Submitted via: CDex 1.50
#
DISCID=b30c200d
DTITLE=Guy Chadwick - Lazy, Soft and Slow
DYEAR=1998
DGENRE=Rock
TTITLE0=Soft and Slow
TTITLE1=You've Really Got Hold On Me
TTITLE2=One Of These Days
TTITLE3=In Her Heart
TTITLE4=Song For Gala
TTITLE5=Mirrored In My Mind
TTITLE6=Wasted In Song
TTITLE7=Fall In Love With Me
TTITLE8=This Strength
TTITLE9=Crystal Love Song
TTITLE10=Close Your Eyes
TTITLE11=Questionaire
TTITLE12=Laughter and Honey
EXTD=YEAR: 1998
EXTT0=
EXTT1=
EXTT2=
EXTT3=
EXTT4=
EXTT5=
EXTT6=
EXTT7=
EXTT8=
EXTT9=
EXTT10=
EXTT11=
EXTT12=
PLAYORDER=
